<?xml version="1.0" ?><!DOCTYPE svg  PUBLIC '-//W3C//DTD SVG 1.1//EN'  'http://www.w3.org/Graphics/SVG/1.1/DTD/svg11.dtd'><svg height="512px" style="enable-background:new 0 0 512 512;" version="1.1" viewBox="0 0 512 512" width="512px" xml:space="preserve" xmlns="http://www.w3.org/2000/svg" xmlns:xlink="http://www.w3.org/1999/xlink"><g id="_x34_30_x2C__3d_x2C__change_x2C__correction_x2C__modification_x2C__object"><g><path d="M188.032,213.646l86.228,49.803l86.23-49.803    c-4.089-6.437-8.844-12.396-14.203-17.754c-16.389-16.391-38.359-27.232-62.801-29.419v23.554c0,3.203-1.301,6.088-3.424,8.211    c-2.156,2.156-5.041,3.457-8.243,3.457c-3.201,0-6.119-1.301-8.242-3.425c-2.157-2.155-3.455-5.04-3.455-8.243v-22.983    c-22.477,3.106-42.609,13.537-57.889,28.849C196.844,201.251,192.088,207.21,188.032,213.646 M283.486,158.643    c26.597,2.219,50.469,13.949,68.286,31.734c5.833,5.864,11.032,12.363,15.438,19.401l45.81-26.472l-67.431-38.93l-62.104-35.855    V158.643z M135.47,183.307l45.81,26.472c4.406-7.038,9.605-13.537,15.438-19.37c16.707-16.738,38.803-28.057,63.404-31.227    v-47.839L135.47,183.307z M416.888,333.987v-143.96l-45.778,26.441c8.18,15.343,12.809,32.873,12.809,51.451    c0,14.932-3.012,29.166-8.432,42.164L416.888,333.987z M278.16,377.514v52.88l129.534-74.786l-43.432-25.075    c-3.71,5.325-7.895,10.302-12.458,14.899C332.783,364.453,306.851,376.5,278.16,377.514z M278.16,270.139v99.545    c26.565-0.982,50.565-12.174,68.127-29.736c4.122-4.121,7.863-8.56,11.224-13.314l-20.417-11.793    c-2.758-1.617-4.66-4.217-5.42-7.102c-0.762-2.854-0.444-6.024,1.172-8.846c1.618-2.758,4.217-4.66,7.07-5.389    c2.885-0.793,6.055-0.477,8.877,1.141l19.908,11.508c4.786-11.793,7.418-24.727,7.418-38.232c0-17.183-4.248-33.351-11.762-47.553    L278.16,270.139z M270.36,369.684v-99.545l-86.228-49.771c-7.482,14.202-11.73,30.37-11.73,47.553    c0,15.28,3.36,29.769,9.384,42.766l20.447-11.793c2.758-1.585,5.929-1.901,8.782-1.141c2.917,0.76,5.515,2.662,7.133,5.42    c1.553,2.79,1.871,5.961,1.109,8.814c-0.76,2.916-2.662,5.516-5.452,7.102l-19.878,11.476c2.567,3.298,5.357,6.435,8.306,9.384    C219.796,357.51,243.762,368.701,270.36,369.684z M175.032,314.585c-6.689-14.171-10.428-29.989-10.428-46.665    c0-18.578,4.627-36.108,12.806-51.451l-45.81-26.441v149.604L175.032,314.585z M270.36,430.394v-52.88    c-28.721-1.014-54.621-13.061-73.611-32.051c-3.455-3.455-6.657-7.102-9.605-10.969l-41.435,23.936L270.36,430.394z     M132.901,175.825l116.6-67.304l-106.201,28.438L132.901,175.825z M123.834,344.131l-0.032-134.416L95.398,315.822l28.341,28.372    L123.834,344.131z M265.193,436.354l-116.568-67.271l77.702,77.7L265.193,436.354z M415.461,360.078l-116.441,67.24L405.19,398.85    l10.365-38.708L415.461,360.078z M424.688,191.55v134.575l28.436-106.139L424.688,191.55z M313.128,49.557    c1.901,0.951,2.661,3.297,1.71,5.199c-0.95,1.934-3.295,2.694-5.23,1.743l-33.921-17.214v150.742c0,2.156-1.742,3.9-3.867,3.9    c-2.155,0-3.899-1.744-3.899-3.9V39.285l-33.921,17.214c-1.934,0.951-4.28,0.19-5.231-1.743c-0.951-1.902-0.189-4.248,1.712-5.199    l39.31-19.941c0.57-0.38,1.269-0.57,2.029-0.57c0.729,0,1.426,0.19,1.996,0.57L313.128,49.557z M482.449,385.027v0.031l0,0    l-0.063,0.096l0,0l0,0l-0.033,0.063l0,0l0,0l-0.063,0.096l0,0l0,0l-0.031,0.063l0,0l-0.032,0.032l-0.031,0.063l0,0l-0.063,0.063    l0,0v0.031l-0.031,0.063h-0.031v0.032l-0.032,0.032l-0.031,0.031l-0.031,0.032l0,0l-0.063,0.063v0.031h-0.033l-0.032,0.064l0,0    l-0.063,0.063l0,0l-0.032,0.031l-0.031,0.032l-0.095,0.063l-0.031,0.063l-0.032,0.031h-0.031l-0.031,0.033v0.031h-0.032    l-0.031,0.031h-0.033v0.032 M481.401,386.327l-0.127,0.096l-0.031,0.031h-0.031l-0.032,0.032l-0.031,0.031l-0.063,0.031l0,0l0,0    h-0.031l-0.031,0.063h-0.032l-37.06,24.157 M443.931,410.77c-1.808,1.173-4.217,0.665-5.39-1.142    c-1.174-1.806-0.666-4.216,1.141-5.39l31.861-20.765l-130.55-75.354c-1.87-1.078-2.504-3.457-1.427-5.327    c1.079-1.838,3.455-2.474,5.326-1.427l130.55,75.388l2.028-37.979c0.128-2.124,1.965-3.772,4.09-3.679    c2.155,0.096,3.805,1.934,3.679,4.091l-2.378,44.16v0.063v0.032v0.031l0,0v0.064v0.063v0.031l-0.033,0.031v0.031v0.032v0.031    v0.032l0,0v0.031v0.032v0.032l-0.032,0.031v0.031v0.033v0.031v0.031v0.031h-0.031v0.063v0.032l0,0l-0.031,0.063l0,0v0.031l0,0    l-0.032,0.064l0,0v0.031l0,0v0.063l-0.031,0.032l0,0v0.063l-0.031,0.032l0,0v0.063l0,0h-0.032v0.095h-0.031v0.096h-0.031    l-0.032,0.095l-0.031,0.064l0,0 M65.724,343.435c-0.126-2.156,1.523-3.995,3.678-4.09c2.125-0.095,3.962,1.554,4.059,3.678    l2.06,37.979l130.548-75.389c1.871-1.047,4.249-0.412,5.328,1.428c1.046,1.869,0.413,4.246-1.458,5.293l-130.55,75.389    l31.893,20.765c1.776,1.173,2.315,3.582,1.141,5.389c-1.172,1.775-3.581,2.314-5.389,1.142L69.972,390.86l-0.063-0.063h-0.032    l-0.063-0.031l-0.063-0.063l-0.063-0.032l-0.031-0.032l-0.065-0.063l-0.063-0.063l-0.095-0.063l-0.031-0.032H69.37l-0.063-0.063    l-0.031-0.063h-0.032l0,0l-0.063-0.063l-0.032-0.063h-0.033l0,0v-0.033l-0.032-0.031l-0.032-0.031l0,0l-0.063-0.064l-0.221-0.315    l-0.16-0.224l-0.032-0.094l0,0l-0.063-0.063l0,0v-0.032v-0.031l-0.032-0.031l0,0l-0.031-0.033l-0.063-0.221h-0.031l-0.032-0.158    l-0.032-0.032l0,0v-0.031l-0.031-0.128l-0.032-0.031v-0.064l-0.032-0.094v-0.031v-0.032l-0.065-0.222v-0.033l0,0v-0.031l0,0    v-0.063l0,0l-0.031-0.096l0,0v-0.189L65.724,343.435z M43.438,482.955c-2.157,0-3.901-1.743-3.901-3.899    c0-2.155,1.744-3.898,3.901-3.898h343.364c2.156,0,3.898,1.743,3.898,3.898c0,2.156-1.742,3.899-3.898,3.899H43.438z     M244.492,462.063c-2.156,0-3.899-1.742-3.899-3.898s1.743-3.899,3.899-3.899H482.1c2.154,0,3.899,1.743,3.899,3.899    s-1.745,3.898-3.899,3.898H244.492z M413.115,482.955c-2.155,0-3.899-1.743-3.899-3.899c0-2.155,1.744-3.898,3.899-3.898h29.706    c2.155,0,3.899,1.743,3.899,3.898c0,2.156-1.744,3.899-3.899,3.899H413.115z M29.9,462.698c-2.155,0-3.899-1.744-3.899-3.9    c0-2.155,1.744-3.899,3.899-3.899h112.574c2.157,0,3.899,1.744,3.899,3.899c0,2.156-1.742,3.9-3.899,3.9H29.9z M283.486,99.55    l116.379,67.209l-12.206-12.237l-65.496-65.465l-38.677,10.366V99.55z" style="fill-rule:evenodd;clip-rule:evenodd;"/></g></g><g id="Layer_1"/></svg>